<?xml version="1.0" encoding="UTF-8"?>
<svg version="1.1" xmlns="http://www.w3.org/2000/svg" width="512" height="512">
<path d="M0 0 C2.44277372 2.21695489 4.75677546 4.54400343 7.0625 6.90234375 C8.01588257 7.86352867 8.01588257 7.86352867 8.98852539 8.84413147 C10.99724954 10.8704779 12.99909226 12.9034374 15 14.9375 C17.00176531 16.96710795 19.00507038 18.99513432 21.01147461 21.02015686 C22.25215988 22.27286328 23.49016949 23.52822824 24.72485352 24.78684998 C27.52290502 27.61672652 30.35373775 30.33022392 33.39538574 32.89736938 C39.62360941 38.32506554 45.37934231 44.24826936 51.20898438 50.09545898 C52.53012965 51.41688673 53.85149596 52.73809354 55.17306519 54.05909729 C58.74083538 57.62658185 62.30552483 61.19713018 65.86964989 64.76825595 C69.60209669 68.50697527 73.33739602 72.24284249 77.0723877 75.97901917 C84.13607434 83.04580766 91.19720908 90.11514028 98.25742006 97.18540102 C106.29900038 105.23817814 114.34343741 113.28809894 122.38811016 121.33778656 C138.92857699 137.8886918 155.46547099 154.44316297 172 171 C176.89043764 166.92775313 181.48226192 162.65440885 185.96260071 158.13746643 C186.62714506 157.47165981 187.29168941 156.80585318 187.97637147 156.1198706 C190.18626511 153.90463097 192.3925468 151.68582938 194.59887695 149.46704102 C196.18933618 147.87138445 197.78004084 146.27597249 199.37097168 144.68078613 C202.78911071 141.2527286 206.20578141 137.82321664 209.6213932 134.39264107 C215.02728073 128.96363153 220.43809716 123.53955272 225.84989929 118.11643982 C233.440939 110.50892876 241.03129385 102.90073691 248.61987305 95.29077148 C249.34120594 94.56740995 249.34120594 94.56740995 250.07711121 93.82943504 C257.86820456 86.01616519 265.65543768 78.19905667 273.44170211 70.38097502 C281.45276325 62.33746083 289.46972545 54.29986555 297.49143571 46.26696914 C302.86783857 40.88248587 308.23761435 35.49150791 313.60257494 30.09562504 C316.94807787 26.73406693 320.29990755 23.37887316 323.65354156 20.02542877 C325.20166728 18.47489014 326.7472315 16.92178888 328.28996086 15.36588097 C342.21030052 1.33165518 354.84253825 -10.15619181 375.5 -10.3125 C387.91941107 -10.33257989 397.03413731 -7.51050522 407 0 C407.86625 0.5775 408.7325 1.155 409.625 1.75 C418.75388276 10.39841525 424.35952177 22.51599543 425.203125 35.0078125 C425.43331562 50.31548861 421.34037628 62.6330092 410.79713559 73.75283849 C407.08447208 77.55847682 403.31100946 81.30051378 399.52978516 85.0378418 C397.83326579 86.73294921 396.1378498 88.42916153 394.44345093 90.12638855 C390.33468847 94.23643272 386.21464512 98.33490189 382.08932741 102.42832377 C377.28542963 107.19632581 372.49582825 111.97858385 367.70699851 116.76171181 C359.1681077 125.28968734 350.61813523 133.80646102 342.06103516 142.31616211 C333.75371203 150.57751781 325.45171067 158.8441625 317.15673828 167.11791992 C316.64455138 167.6287932 316.13236448 168.13966648 315.60465677 168.66602077 C313.03493417 171.2292177 310.46531509 173.79251836 307.89574742 176.3558706 C286.6131858 197.58668542 265.31238581 218.7991215 244 240 C245.7767024 243.80336086 247.98641782 246.23542865 250.97012329 249.21736145 C251.48071521 249.73036779 251.99130713 250.24337412 252.51737154 250.77192611 C254.22902526 252.48921405 255.94773216 254.19926229 257.66650391 255.90942383 C258.8956048 257.13959774 260.1242726 258.3702045 261.35253906 259.60121155 C264.69125463 262.94477784 268.03619364 266.28205399 271.38240099 269.61812043 C274.88666868 273.11360187 278.38566052 276.61435708 281.88534546 280.11442566 C287.76830406 285.99644727 293.65512398 291.87458179 299.54443359 297.75024414 C306.34137777 304.53149531 313.1331144 311.31792573 319.92184889 318.10739499 C327.15860122 325.34482467 334.39916463 332.57843243 341.64083815 339.81093764 C343.7212831 341.88925724 345.80102201 343.96828111 347.88060379 346.04746437 C351.15976618 349.32561676 354.44148686 352.60118743 357.72514343 355.87483788 C358.92560811 357.07239916 360.12524813 358.27078779 361.32397079 359.47009277 C366.87217035 365.0199664 372.41988919 370.51573878 378.38943863 375.61850262 C380.43330088 377.37167416 382.36687225 379.21955712 384.28540039 381.10839844 C385.02299088 381.83315369 385.76058136 382.55790894 386.52052307 383.30462646 C387.28847702 384.06519348 388.05643097 384.8257605 388.84765625 385.609375 C389.66318466 386.41683167 390.47871307 387.22428833 391.31895447 388.05621338 C393.03221549 389.75572764 394.74399153 391.45674008 396.4543457 393.15917969 C398.19044157 394.88373733 399.93099947 396.60381489 401.67602539 398.31933594 C404.22241718 400.8227881 406.75504748 403.33947932 409.28515625 405.859375 C410.05513443 406.61184509 410.82511261 407.36431519 411.61842346 408.1395874 C422.97857327 419.54498932 429.32023995 431.83807315 429.5 448 C429.34723617 461.72455695 425.4042349 472.16912702 415.8984375 482.22265625 C405.1257571 492.40531352 392.43040648 496.08435724 377.82421875 495.9765625 C361.96803333 495.17900587 349.27462417 488.95546717 338.22970581 477.71072388 C337.514707 476.99914277 336.7997082 476.28756166 336.06304276 475.55441749 C333.69373856 473.19164888 331.33892347 470.8149712 328.98388672 468.43798828 C327.27885965 466.73183181 325.5729491 465.02655785 323.8662262 463.32209778 C319.73052882 459.18742627 315.60407267 455.04370039 311.48166291 450.89578386 C306.6804459 446.06586307 301.86783309 441.24736387 297.05452706 436.42949532 C288.47250761 427.83874146 279.89944169 419.23911049 271.33203125 410.63378906 C263.01415428 402.27914386 254.69204768 393.9287491 246.36425781 385.58398438 C245.85013481 385.06881048 245.33601181 384.55363659 244.80630933 384.02285136 C242.22684039 381.43816193 239.64728851 378.85355529 237.06769538 376.2689898 C215.69892264 354.85881281 194.34484258 333.43403579 173 312 C168.05075473 316.14710881 163.40643821 320.46276144 158.86776733 325.05235291 C158.18492192 325.73857729 157.5020765 326.42480168 156.7985388 327.13182074 C154.52653933 329.41615469 152.25818414 331.70407317 149.98974609 333.99194336 C148.35491792 335.63688351 146.71981973 337.28155534 145.08447266 338.92597961 C141.56991726 342.4606034 138.05669273 345.99654292 134.54432297 349.53333855 C128.98348279 355.13165587 123.4161174 360.72345614 117.84707642 366.31361389 C116.89628563 367.268074 115.94549726 368.22253652 114.99471128 369.17700142 C113.55409619 370.62316932 112.11347195 372.06932811 110.67282753 373.51546679 C105.25081283 378.95816425 99.82930459 384.40136567 94.40869141 389.84545898 C93.91363667 390.34265308 93.41858194 390.83984718 92.90852554 391.35210777 C84.89214962 399.40370498 76.88498443 407.46440757 68.88072924 415.52805202 C60.64360896 423.8257657 52.39493005 432.1118652 44.13599455 440.38786608 C39.50707659 445.02743807 34.88374459 449.6722828 30.27344894 454.33036613 C25.93449721 458.71412929 21.58156733 463.08351833 17.2177887 467.44256401 C15.62473428 469.03884919 14.0367761 470.64024032 12.45453262 472.24724197 C-0.46188385 485.35647636 -12.00474498 495.08250267 -31.22216797 495.38037109 C-46.33242918 495.35300194 -58.71470588 493.77974272 -70.15234375 482.96484375 C-80.95166419 471.56220932 -83.6165866 459.20516259 -83.3125 443.96875 C-82.26647124 420.8515143 -60.90416411 404.75312497 -45.6965332 389.58300781 C-44.07895262 387.96570987 -42.46159333 386.34819056 -40.84443665 384.73046875 C-36.48795821 380.37370536 -32.12842043 376.02001529 -27.76829553 371.66690159 C-23.19945443 367.10434451 -18.6334765 362.53892387 -14.06718445 357.97381592 C-6.4136717 350.32305042 1.24158005 342.67402962 8.89819336 335.02636719 C16.77860845 327.15515493 24.6579548 319.28287532 32.53588867 311.40917969 C33.02286599 310.92246509 33.5098433 310.4357505 34.01157751 309.93428698 C36.45500549 307.4921642 38.89841272 305.05002064 41.34180963 302.60786676 C61.55798996 282.40202462 81.77783013 262.19984766 102 242 C97.85391135 237.05129087 93.53893677 232.40988681 88.94764709 227.87449646 C88.26142271 227.19235661 87.57519832 226.51021676 86.86817926 225.80740601 C84.58384669 223.53773665 82.29592201 221.27172298 80.00805664 219.00561523 C78.36310874 217.37241765 76.71843712 215.73894175 75.07402039 214.10520935 C71.53934295 210.59398326 68.00339592 207.0840423 64.46666145 203.57488823 C58.86791534 198.01840735 53.27622027 192.45486378 47.68638611 186.88941956 C46.73192471 185.93918655 45.7774622 184.98895467 44.82299858 184.03872389 C42.89116175 182.11540985 40.95936464 180.19205591 39.02758873 178.26868069 C34.07043006 173.33313502 29.11289465 168.39796824 24.15454102 163.46362305 C23.40874987 162.72143441 23.40874987 162.72143441 22.64789223 161.96425206 C14.59768184 153.95360804 6.53661703 145.95396637 -1.52805202 137.95788204 C-9.82763589 129.72828139 -18.11366176 121.4852007 -26.38786608 113.23008305 C-31.02617059 108.60372926 -35.6705566 103.98387983 -40.33036613 99.379179 C-44.71633943 95.04485953 -49.08545931 90.6942292 -53.44256401 86.33089638 C-55.03797338 84.73898957 -56.63933317 83.15301883 -58.24724197 81.5737381 C-71.27092988 68.77130614 -80.73898755 56.70014233 -81.375 37.8125 C-81.15291597 23.84896685 -75.7962174 11.01885871 -66 1 C-46.17053901 -15.14025894 -20.07492716 -16.12857396 0 0 Z " fill="#000000" transform="translate(83,14)"/>
</svg>
