<?xml version="1.0" encoding="UTF-8"?>
<svg version="1.1" xmlns="http://www.w3.org/2000/svg" width="512" height="512">
<path d="M0 0 C1.82309123 -0.0030225 3.64618119 -0.00691247 5.46926892 -0.01159257 C10.46721557 -0.02186859 15.46509045 -0.01969174 20.46304297 -0.01541197 C25.85783647 -0.01294405 31.25261273 -0.02195973 36.6473999 -0.02944946 C47.21172104 -0.04219651 57.77601676 -0.04399015 68.34034429 -0.0416492 C76.92747204 -0.03986593 85.51459208 -0.04161587 94.1017189 -0.04587364 C95.32403321 -0.04646883 96.54634752 -0.04706402 97.80570165 -0.04767724 C100.2888588 -0.048889 102.77201595 -0.05010313 105.2551731 -0.05131962 C128.54032854 -0.06219513 151.8254695 -0.06003258 175.11062576 -0.05393478 C196.40985037 -0.04876531 217.70901187 -0.06002184 239.0082296 -0.07903299 C260.88222201 -0.09840741 282.75619278 -0.10666811 304.63019383 -0.10290974 C316.90919762 -0.10099714 329.18816248 -0.1034911 341.46715927 -0.11762428 C351.92007745 -0.12953395 362.37293274 -0.13094756 372.82585178 -0.11883412 C378.15781955 -0.11294264 383.48967226 -0.11185354 388.82163239 -0.12383652 C393.70580548 -0.1346855 398.58976732 -0.13160356 403.47393049 -0.11757483 C405.23764084 -0.11492522 407.00136769 -0.11730274 408.76506184 -0.1253107 C423.48650413 -0.18749539 436.43251292 1.14408908 447.69607544 11.55757141 C457.56502161 21.94254091 459.72168551 31.74468923 459.48513794 45.69819641 C459.0345242 56.56646431 453.96643623 64.42784203 446.48513794 72.01069641 C434.89794006 82.59261228 421.27265095 82.55623008 406.42340088 82.52139282 C404.60030965 82.52441532 402.77721969 82.52830529 400.95413196 82.53298539 C395.95618531 82.54326141 390.95831043 82.54108456 385.9603579 82.5368048 C380.5655644 82.53433687 375.17078815 82.54335255 369.77600098 82.55084229 C359.21167984 82.56358933 348.64738412 82.56538298 338.08305658 82.56304202 C329.49592884 82.56125875 320.9088088 82.5630087 312.32168198 82.56726646 C310.48821052 82.56815925 310.48821052 82.56815925 308.61769923 82.56907007 C306.13454208 82.57028182 303.65138493 82.57149596 301.16822778 82.57271244 C277.88307234 82.58358795 254.59793138 82.5814254 231.31277512 82.5753276 C210.01355051 82.57015813 188.71438901 82.58141466 167.41517128 82.60042582 C145.54117887 82.61980023 123.6672081 82.62806093 101.79320705 82.62430257 C89.51420326 82.62238996 77.2352384 82.62488393 64.95624161 82.63901711 C54.50332343 82.65092678 44.05046814 82.65234038 33.5975491 82.64022694 C28.26558133 82.63433547 22.93372862 82.63324636 17.60176849 82.64522934 C12.71759539 82.65607832 7.83363356 82.65299638 2.94947039 82.63896766 C1.18576004 82.63631804 -0.57796681 82.63869556 -2.34166096 82.64670352 C-16.86594275 82.70805539 -29.83805932 81.45723221 -41.01486206 71.22163391 C-50.80435109 60.84550883 -53.29681916 50.69025841 -53.06173706 36.82319641 C-52.61112333 25.95492851 -47.54303535 18.09355079 -40.06173706 10.51069641 C-28.47453918 -0.07121946 -14.84925007 -0.03483726 0 0 Z " fill="#000000" transform="translate(52.788299560546875,214.7393035888672)"/>
<path d="M0 0 C1.78041674 -0.00186964 3.56083307 -0.00417095 5.34124875 -0.00686532 C10.22130121 -0.01297079 15.1013365 -0.0128512 19.98139191 -0.01167095 C25.24942793 -0.01146662 30.51745848 -0.0169887 35.78549194 -0.02172852 C46.10182293 -0.03002869 56.41814821 -0.03278307 66.73448226 -0.03334089 C75.1213619 -0.03381634 83.50823966 -0.03587253 91.89511871 -0.03904152 C115.68190498 -0.04784626 139.46868675 -0.05246116 163.25547466 -0.05171105 C165.17829174 -0.05165111 165.17829174 -0.05165111 167.13995361 -0.05158997 C169.06512266 -0.05152864 169.06512266 -0.05152864 171.02918401 -0.05146609 C191.82911941 -0.05105964 212.62903669 -0.06062938 233.42896685 -0.07472833 C254.7944603 -0.08909619 276.15994492 -0.09599829 297.52544332 -0.09513456 C309.51722176 -0.09480274 321.50898122 -0.09754334 333.50075531 -0.10831261 C343.71059465 -0.11742297 353.9204064 -0.11958843 364.13024804 -0.11280318 C369.33687551 -0.10954074 374.54345006 -0.10947138 379.75007248 -0.11815643 C384.52204987 -0.12603444 389.29393251 -0.12457671 394.06590763 -0.1158723 C395.78658573 -0.11434019 397.50727095 -0.11614253 399.22794065 -0.12173238 C415.72240257 -0.17174198 431.05082481 0.28115746 443.78839111 12.11808777 C451.27359418 20.42424859 455.19278104 30.29664191 455.10479736 41.38371277 C455.09980225 42.21491638 455.09480713 43.04612 455.08966064 43.9025116 C454.88689945 51.10892428 453.2779973 56.87855532 449.60479736 63.13371277 C449.1703833 63.87879089 448.73596924 64.62386902 448.28839111 65.39152527 C442.34326126 74.30075121 432.81723827 79.57634889 422.60479736 82.13371277 C416.51619608 82.70827541 410.45919164 82.67491052 404.34820557 82.64164734 C402.49863603 82.64626117 400.64907016 82.65261732 398.79951191 82.66055632 C393.73759583 82.67720646 388.67598261 82.66902287 383.61406565 82.65661144 C378.14703762 82.64754561 372.68006097 82.66153829 367.21304321 82.67253113 C356.51127007 82.69030453 345.80960923 82.68648158 335.10783172 82.67488056 C326.40918924 82.6658419 317.7105782 82.66462413 309.01193237 82.66897583 C307.77323688 82.66958876 306.53454138 82.67020169 305.25830966 82.6708332 C302.74181357 82.67211212 300.22531749 82.67340897 297.70882142 82.67472357 C274.79165656 82.68580096 251.87454075 82.67431915 228.9573874 82.65335318 C208.0504366 82.63437168 187.14358326 82.63607023 166.2366333 82.65519714 C142.73079829 82.67662995 119.22500617 82.68502731 95.71916103 82.67274809 C93.21199482 82.67147391 90.70482859 82.67021643 88.19766235 82.66897583 C86.96413365 82.66835873 85.73060495 82.66774163 84.45969659 82.66710582 C75.77291225 82.66365416 67.08616252 82.66947734 58.39938354 82.67889404 C47.8110786 82.6901199 37.22289226 82.68706153 26.63460088 82.66577107 C21.23373466 82.65526867 15.83306608 82.65112518 10.43220139 82.66436768 C5.48512924 82.67631394 0.53843736 82.66969201 -4.40860045 82.64845747 C-6.19512737 82.6440009 -7.98168663 82.64623635 -9.76819265 82.65596062 C-23.84668534 82.72669522 -35.52927562 80.83145991 -46.39520264 71.13371277 C-49.14400671 68.00049739 -51.3254034 64.74625361 -53.39520264 61.13371277 C-53.8296167 60.40925964 -54.26403076 59.68480652 -54.71160889 58.93840027 C-59.09637179 50.16887446 -58.79062226 38.42094051 -56.69989014 29.00090027 C-55.78275775 26.54236891 -54.72451042 24.393536 -53.39520264 22.13371277 C-52.77645264 20.98902527 -52.77645264 20.98902527 -52.14520264 19.82121277 C-46.82123588 10.86726867 -39.08168994 5.21809135 -29.32879639 1.82511902 C-19.71387926 -0.44097996 -9.81144229 -0.00976271 0 0 Z " fill="#000000" transform="translate(57.39520263671875,25.866287231445313)"/>
<path d="M0 0 C1.84956954 -0.00461383 3.6991354 -0.01096998 5.54869366 -0.01890898 C10.61060974 -0.03555912 15.67222296 -0.02737553 20.73413992 -0.0149641 C26.20116794 -0.00589828 31.6681446 -0.01989095 37.13516235 -0.03088379 C47.8369355 -0.0486572 58.53859633 -0.04483424 69.24037385 -0.03323323 C77.93901633 -0.02419456 86.63762736 -0.02297679 95.33627319 -0.02732849 C96.57496869 -0.02794142 97.81366418 -0.02855436 99.0898959 -0.02918586 C101.606392 -0.03046478 104.12288808 -0.03176163 106.63938415 -0.03307623 C129.55654901 -0.04415362 152.47366482 -0.03267181 175.39081816 -0.01170584 C196.29776897 0.00727566 217.20462231 0.00557711 238.11157227 -0.0135498 C261.61740728 -0.03498261 285.1231994 -0.04337997 308.62904453 -0.03110075 C311.13621075 -0.02982657 313.64337698 -0.02856909 316.15054321 -0.02732849 C318.00083627 -0.02640284 318.00083627 -0.02640284 319.88850898 -0.02545848 C328.57529332 -0.02200682 337.26204304 -0.02783 345.94882202 -0.0372467 C356.53712696 -0.04847256 367.12531331 -0.04541419 377.71360469 -0.02412373 C383.11447091 -0.01362133 388.51513949 -0.00947784 393.91600418 -0.02272034 C398.86307633 -0.0346666 403.80976821 -0.02804468 408.75680602 -0.00681013 C410.54333294 -0.00235356 412.3298922 -0.00458901 414.11639822 -0.01431328 C428.36514742 -0.08590331 439.61734895 1.96851405 450.7434082 11.50793457 C453.17777471 13.97967074 454.99781951 16.51401686 456.7434082 19.50793457 C457.22938477 20.3355127 457.71536133 21.16309082 458.21606445 22.01574707 C463.06452342 31.71266501 463.39399022 43.13103171 461.04418945 53.63293457 C460.13141714 56.09780496 459.07487618 58.24443901 457.7434082 60.50793457 C457.3309082 61.27105957 456.9184082 62.03418457 456.4934082 62.82043457 C451.16944144 71.77437867 443.4298955 77.42355599 433.67700195 80.81652832 C424.06208483 83.0826273 414.15964786 82.65141005 404.34820557 82.64164734 C402.56778883 82.64351698 400.7873725 82.64581829 399.00695682 82.64851266 C394.12690436 82.65461813 389.24686906 82.65449854 384.36681366 82.65331829 C379.09877764 82.65311396 373.83074709 82.65863604 368.56271362 82.66337585 C358.24638263 82.67167603 347.93005736 82.67443041 337.61372331 82.67498823 C329.22684366 82.67546368 320.8399659 82.67751986 312.45308685 82.68068886 C288.66630058 82.6894936 264.87951882 82.6941085 241.09273091 82.69335838 C239.81085285 82.69331843 238.5289748 82.69327847 237.20825195 82.6932373 C235.92480592 82.69319642 234.64135989 82.69315554 233.31902155 82.69311342 C212.51908616 82.69270697 191.71916887 82.70227672 170.91923872 82.71637567 C149.55374527 82.73074353 128.18826065 82.73764563 106.82276225 82.7367819 C94.83098381 82.73645007 82.83922434 82.73919068 70.84745026 82.74995995 C60.63761092 82.75907031 50.42779917 82.76123576 40.21795753 82.75445052 C35.01133006 82.75118808 29.8047555 82.75111872 24.59813309 82.75980377 C19.82615569 82.76768178 15.05427306 82.76622405 10.28229794 82.75751964 C8.56161984 82.75598752 6.84093462 82.75778987 5.12026492 82.76337972 C-11.37419701 82.81338932 -26.70261924 82.36048988 -39.44018555 70.52355957 C-46.92538861 62.21739875 -50.84457547 52.34500543 -50.7565918 41.25793457 C-50.75159668 40.42673096 -50.74660156 39.59552734 -50.74145508 38.73913574 C-50.53869388 31.53272306 -48.92979173 25.76309202 -45.2565918 19.50793457 C-44.6049707 18.39031738 -44.6049707 18.39031738 -43.94018555 17.25012207 C-33.65540247 1.83759814 -16.97128878 -0.09237774 0 0 Z " fill="#000000" transform="translate(50.256591796875,403.4920654296875)"/>
</svg>
