<?xml version="1.0" standalone="no"?>
<!DOCTYPE svg PUBLIC "-//W3C//DTD SVG 20010904//EN"
 "http://www.w3.org/TR/2001/REC-SVG-20010904/DTD/svg10.dtd">
<svg version="1.0" xmlns="http://www.w3.org/2000/svg"
 width="200.000000pt" height="200.000000pt" viewBox="0 0 200.000000 200.000000"
 preserveAspectRatio="xMidYMid meet">
<metadata>
Created by potrace 1.16, written by Peter Selinger 2001-2019
</metadata>
<g transform="translate(0.000000,200.000000) scale(0.100000,-0.100000)"
fill="#000000">
<path d="M826 1834 c-297 -66 -524 -277 -612 -569 -24 -78 -28 -107 -28 -220
0 -179 35 -301 130 -447 104 -162 271 -282 471 -340 65 -19 101 -23 218 -22
129 1 147 3 235 32 268 89 457 282 541 552 20 64 23 97 24 220 0 125 -3 155
-23 220 -86 275 -285 475 -557 559 -95 30 -300 37 -399 15z m275 -24 c96 -14
214 -54 289 -97 81 -47 233 -198 279 -276 82 -140 122 -329 103 -482 -22 -169
-92 -320 -201 -438 -55 -58 -155 -139 -149 -120 2 4 -12 34 -30 65 -31 54 -34
56 -57 46 -14 -6 -25 -14 -25 -19 0 -4 -20 -16 -45 -28 -25 -12 -45 -24 -45
-27 0 -4 14 -30 30 -60 36 -63 37 -62 -77 -88 -72 -16 -223 -23 -242 -12 -6 4
-4 18 5 36 20 40 15 94 -10 98 -32 6 -37 -7 -46 -130 0 -3 -9 -4 -20 -1 -18 5
-19 8 -7 22 7 9 14 37 15 63 1 38 -2 50 -18 58 -35 19 -53 13 -46 -16 5 -17 0
-33 -14 -51 -16 -21 -18 -29 -8 -41 22 -26 -46 -7 -137 37 -199 98 -349 285
-405 505 -25 99 -27 257 -4 359 87 387 473 654 865 597z m265 -1452 c-18 -12
-23 -9 -28 16 -5 24 -4 24 17 8 16 -12 19 -19 11 -24z"/>
<path d="M1053 1763 c-7 -2 -13 -11 -13 -19 0 -8 6 -14 13 -14 9 0 8 -3 -2 -9
-8 -5 -14 -29 -15 -62 -1 -52 0 -54 27 -57 30 -4 28 -8 33 103 2 56 -9 72 -43
58z"/>
<path d="M1134 1729 c-12 -14 -19 -38 -21 -70 -2 -54 14 -79 49 -79 17 0 20 5
15 29 -4 21 0 36 13 52 22 25 25 39 9 39 -6 0 -9 6 -6 14 6 15 -11 36 -28 36
-7 0 -20 -9 -31 -21z"/>
<path d="M905 1718 c-10 -6 -15 -24 -15 -51 0 -63 7 -69 73 -61 l57 7 0 47 c0
26 -6 52 -12 58 -15 12 -81 12 -103 0z m52 -60 c-3 -7 -5 -2 -5 12 0 14 2 19
5 13 2 -7 2 -19 0 -25z"/>
<path d="M800 1703 c-51 -19 -66 -77 -30 -113 37 -37 110 -2 110 52 0 46 -39
76 -80 61z m17 -65 c-3 -8 -6 -5 -6 6 -1 11 2 17 5 13 3 -3 4 -12 1 -19z"/>
<path d="M655 1667 c-12 -10 -16 -22 -13 -41 5 -25 4 -26 -13 -10 -19 17 -49
13 -68 -10 -8 -9 -1 -27 25 -69 37 -60 54 -69 76 -39 7 10 30 26 50 35 20 10
40 22 43 28 8 12 -55 119 -70 119 -6 0 -19 -6 -30 -13z"/>
<path d="M1216 1648 c-27 -38 -20 -75 15 -94 41 -21 75 -11 94 26 12 23 13 35
5 50 -23 44 -89 54 -114 18z m54 -48 c-6 -12 -14 -19 -17 -17 -2 3 1 15 7 27
6 12 14 19 17 17 2 -3 -1 -15 -7 -27z"/>
<path d="M1336 1567 c-35 -42 -35 -42 -16 -61 19 -20 20 -20 44 3 21 20 27 21
45 9 18 -11 23 -10 37 4 14 14 15 20 4 32 -7 9 -19 16 -26 16 -8 0 -14 4 -14
10 0 5 -9 14 -19 20 -16 8 -25 3 -55 -33z"/>
<path d="M892 1528 c-52 -11 -119 -72 -128 -115 -4 -22 -27 -49 -82 -94 -127
-108 -142 -124 -142 -157 0 -16 -7 -49 -15 -72 -22 -63 -20 -197 6 -273 58
-175 167 -279 353 -336 89 -28 165 -27 252 3 193 65 281 145 329 298 30 93 34
254 10 323 -8 22 -15 52 -15 67 0 29 -52 84 -157 165 -34 27 -75 68 -91 93
-37 57 -61 78 -109 96 -43 15 -148 16 -211 2z m156 -25 c-21 -2 -57 -2 -80 0
-24 2 -7 4 37 4 44 0 63 -2 43 -4z m56 -23 c21 -4 46 -15 54 -24 13 -13 10
-14 -24 -6 -75 18 -205 11 -309 -15 -29 -7 -29 -7 -13 10 33 35 204 56 292 35z
m61 -54 c34 -14 52 -45 19 -32 -73 28 -239 30 -341 5 -41 -11 -64 -7 -50 8 32
31 308 46 372 19z m-25 -37 c43 -9 88 -35 78 -44 -2 -2 -28 3 -58 11 -41 11
-90 14 -190 10 -74 -2 -147 -8 -162 -11 -17 -5 -28 -3 -28 3 0 32 255 54 360
31z m33 -50 c71 -16 58 -31 -20 -22 -38 4 -136 8 -220 8 -84 0 -149 3 -145 7
26 26 281 30 385 7z m123 -31 c22 -17 31 -28 21 -25 -11 4 -30 10 -43 13 -15
4 -24 13 -24 25 0 25 0 25 46 -13z m-546 13 c0 -5 -7 -12 -16 -15 -24 -9 -28
-7 -14 9 14 17 30 20 30 6z m415 -36 c113 -16 176 -32 172 -44 -1 -4 15 -23
36 -43 20 -19 37 -31 37 -26 0 6 -15 24 -32 40 l-33 31 35 -18 c42 -21 50 -32
50 -67 0 -42 -14 -41 -50 3 -69 87 -208 124 -433 116 -185 -6 -239 -20 -291
-77 -34 -37 -41 -55 -37 -89 3 -20 -20 -8 -43 22 l-20 27 20 28 c28 37 111 80
186 97 84 18 279 18 403 0z m31 -40 c83 -19 156 -61 184 -107 26 -43 14 -57
-13 -16 -31 45 -93 86 -157 104 -126 35 -393 27 -478 -13 -41 -20 -87 -84 -79
-113 6 -24 -8 -27 -17 -4 -20 51 35 123 110 144 115 33 321 35 450 5z m31 -40
c59 -20 128 -73 136 -105 4 -16 -2 -24 -31 -36 -34 -14 -38 -14 -49 3 -7 10
-17 23 -23 30 -5 7 -10 24 -10 38 0 43 -30 61 -122 75 -99 15 -312 10 -345 -8
-18 -10 -23 -22 -23 -52 0 -50 -41 -100 -68 -84 -47 30 -11 112 61 138 67 24
73 25 252 22 133 -2 181 -7 222 -21z m-67 -28 l55 -12 3 -105 c1 -58 -1 -110
-6 -117 -5 -9 -21 -7 -62 7 -30 11 -62 19 -72 20 -9 0 -18 6 -21 13 -4 10 -7
10 -18 0 -7 -7 -28 -13 -46 -13 -25 0 -33 4 -33 18 0 10 4 22 9 28 5 5 14 26
21 47 10 32 9 42 -4 62 -24 36 -83 51 -129 31 -40 -16 -52 -43 -14 -32 61 17
78 18 102 2 14 -9 25 -22 25 -29 0 -27 -46 -117 -60 -117 -8 0 -38 -9 -66 -18
l-52 -18 -4 60 c-3 34 -3 87 0 118 4 52 7 57 31 61 57 9 289 4 341 -6z m290
-87 c0 -14 -7 -20 -22 -20 -20 0 -21 1 -3 20 10 11 20 20 22 20 1 0 3 -9 3
-20z m-791 -47 c2 -2 -23 -3 -57 -3 -60 0 -90 19 -34 21 23 2 24 2 5 6 -23 4
-29 14 -17 26 5 5 78 -30 103 -50z m782 17 c10 0 19 -4 19 -10 0 -5 -23 -10
-52 -10 -48 0 -50 1 -32 15 10 8 25 12 32 10 8 -3 22 -5 33 -5z m-184 -52 c-2
-13 -4 -5 -4 17 -1 22 1 32 4 23 2 -10 2 -28 0 -40z m-546 22 c5 0 9 -8 9 -19
0 -10 9 -30 20 -44 11 -14 20 -28 20 -31 0 -4 -15 -20 -32 -36 -31 -27 -39
-29 -110 -30 -43 0 -78 4 -78 9 0 6 31 7 74 4 49 -4 75 -2 80 6 5 8 -16 11
-73 11 -47 0 -81 4 -81 10 0 6 40 10 99 10 56 0 103 4 106 10 4 6 -32 10 -99
10 -58 0 -106 3 -106 8 0 4 39 5 86 3 54 -2 90 1 97 8 8 8 -15 11 -86 11 -58
0 -97 4 -97 10 0 6 37 11 88 11 76 1 81 2 42 10 -25 4 -64 8 -87 8 -24 1 -43
6 -43 11 0 7 23 8 65 4 49 -5 65 -4 65 6 0 7 7 10 16 6 9 -3 20 -6 25 -6z m46
-27 c-3 -10 -5 -4 -5 12 0 17 2 24 5 18 2 -7 2 -21 0 -30z m588 27 c-3 -5 21
-11 57 -13 l63 -3 -70 -2 c-105 -3 -120 -22 -17 -22 112 0 107 -19 -5 -22
l-88 -2 88 -3 c118 -5 112 -23 -7 -23 -53 0 -98 -4 -101 -10 -4 -6 31 -11 97
-12 95 -1 98 -2 36 -7 -91 -8 -97 -21 -10 -21 41 0 72 -4 72 -10 0 -6 -27 -10
-62 -10 -72 0 -71 -9 4 -20 l53 -8 -72 -1 c-39 0 -75 -5 -78 -11 -4 -6 22 -10
70 -10 48 0 74 -4 70 -10 -3 -5 -40 -10 -81 -10 -54 0 -73 -3 -68 -11 5 -8 29
-10 75 -6 41 3 69 2 69 -4 0 -5 -18 -9 -40 -9 -48 0 -55 -20 -7 -21 27 0 29
-2 12 -9 -19 -8 -19 -9 -1 -9 11 -1 16 -4 13 -7 -4 -4 -40 9 -82 27 -86 39
-99 65 -44 86 28 11 30 14 19 28 -8 9 -26 23 -42 31 -35 18 -35 36 -3 68 14
14 25 32 25 41 0 9 10 20 23 25 30 12 39 12 32 0z m-459 -105 c-9 -14 -23 -36
-32 -50 -9 -14 -21 -25 -26 -25 -11 0 14 43 45 78 27 29 33 28 13 -3z m-54
-29 c-15 -24 -29 -42 -31 -40 -4 4 47 84 54 84 2 0 -8 -20 -23 -44z m93 -1
c-9 -20 -19 -34 -23 -31 -3 4 2 22 13 41 24 45 30 39 10 -10z m150 25 c23 -19
38 -50 25 -50 -5 0 -10 6 -10 14 0 7 -8 20 -17 27 -15 12 -16 12 -10 -3 9 -25
-6 -22 -32 6 l-23 25 25 -3 c14 -1 33 -9 42 -16z m-81 -15 c-7 -18 -34 -28
-34 -12 0 17 21 38 31 31 5 -2 6 -11 3 -19z m-192 -14 c-9 -16 -18 -28 -21
-26 -4 5 27 55 34 55 2 0 -4 -13 -13 -29z m91 -1 c-5 -19 -33 -49 -33 -36 0 7
31 56 35 56 2 0 1 -9 -2 -20z m48 -7 c-12 -20 -14 -14 -5 12 4 9 9 14 11 11 3
-2 0 -13 -6 -23z m-171 -3 c-6 -11 -13 -20 -16 -20 -2 0 0 9 6 20 6 11 13 20
16 20 2 0 0 -9 -6 -20z m380 0 c6 -11 7 -20 2 -20 -6 0 -12 9 -15 20 -3 11 -3
20 -1 20 2 0 8 -9 14 -20z m-113 -22 c-16 -10 -47 -10 -47 0 0 20 23 31 41 19
13 -8 15 -13 6 -19z m167 7 c3 -8 1 -15 -4 -15 -6 0 -10 7 -10 15 0 8 2 15 4
15 2 0 6 -7 10 -15z m-500 -14 c3 -4 19 -11 36 -14 21 -5 30 -12 30 -26 0 -23
-16 -36 -25 -21 -3 5 -46 10 -96 10 -53 0 -89 4 -89 10 0 6 40 10 98 11 78 1
89 3 57 10 -22 4 -69 9 -105 10 l-65 2 65 7 c36 4 70 7 77 8 6 1 14 -2 17 -7z
m260 -133 c3 -62 8 -126 11 -143 3 -20 -1 -15 -11 15 -18 53 -32 256 -17 247
5 -3 13 -57 17 -119z m109 -35 l-10 -98 0 130 c-1 102 1 123 9 98 7 -21 7 -64
1 -130z m32 47 c-3 -60 -11 -122 -16 -137 -8 -24 -8 -22 -4 12 3 22 5 84 5
138 0 65 4 97 11 97 8 0 10 -31 4 -110z m-196 -109 c6 -19 9 -37 7 -39 -11
-10 -28 82 -31 163 l-3 90 8 -90 c4 -49 13 -105 19 -124z m18 121 c1 -56 9
-110 22 -152 26 -81 20 -90 -10 -13 -23 60 -41 253 -23 253 5 0 10 -39 11 -88z
m76 -72 c5 -106 3 -137 -4 -115 -14 41 -24 283 -11 270 5 -5 12 -75 15 -155z
m40 -25 c-4 -71 -9 -101 -14 -85 -9 34 -11 255 -1 264 14 15 21 -70 15 -179z
m91 103 c-7 -104 -21 -189 -33 -201 -5 -5 -3 17 5 49 7 31 14 97 16 146 1 48
6 88 11 88 4 0 5 -37 1 -82z m17 -93 l-11 -40 5 49 c3 27 6 76 7 110 l2 61 3
-70 c2 -38 -1 -88 -6 -110z m-344 113 c-2 -13 -4 -5 -4 17 -1 22 1 32 4 23 2
-10 2 -28 0 -40z m20 30 c-3 -8 -6 -5 -6 6 -1 11 2 17 5 13 3 -3 4 -12 1 -19z
m30 -55 c-2 -16 -4 -3 -4 27 0 30 2 43 4 28 2 -16 2 -40 0 -55z m324 -55 l-11
-33 5 34 c3 18 6 57 7 85 l2 51 3 -52 c2 -28 -1 -66 -6 -85z m48 120 c0 -7 -4
-22 -9 -33 -7 -17 -9 -15 -9 13 -1 17 4 32 9 32 6 0 10 -6 9 -12z m-552 -59
c-32 -17 -64 -28 -70 -25 -7 2 -3 5 8 6 17 2 16 3 -5 10 -24 8 -23 8 8 9 44 1
41 19 -5 24 -21 2 -2 4 42 5 l80 1 -58 -30z m98 1 c3 -6 -4 -10 -17 -10 -18 0
-20 2 -8 10 19 12 18 12 25 0z m495 0 c12 -8 11 -10 -7 -10 -13 0 -23 5 -23
10 0 13 11 13 30 0z m-433 -32 c-3 -7 -5 -2 -5 12 0 14 2 19 5 13 2 -7 2 -19
0 -25z m-137 -53 l0 -65 -35 39 c-19 21 -35 43 -35 48 0 7 48 37 68 42 1 1 2
-28 2 -64z m80 55 c0 -5 -11 -10 -25 -10 -14 0 -25 5 -25 10 0 6 11 10 25 10
14 0 25 -4 25 -10z m575 -7 c19 -9 35 -21 35 -27 0 -6 -15 -27 -32 -46 l-33
-34 -7 39 c-8 48 -10 85 -3 85 2 0 20 -8 40 -17z m-82 0 c-7 -2 -21 -2 -30 0
-10 3 -4 5 12 5 17 0 24 -2 18 -5z m-406 -35 c-3 -8 -6 -5 -6 6 -1 11 2 17 5
13 3 -3 4 -12 1 -19z m408 12 c4 -6 -5 -10 -20 -10 -15 0 -24 4 -20 10 3 6 12
10 20 10 8 0 17 -4 20 -10z m-485 -10 c0 -5 -13 -10 -30 -10 -16 0 -30 5 -30
10 0 6 14 10 30 10 17 0 30 -4 30 -10z m484 -16 c27 -10 18 -21 -14 -16 -16 2
-27 8 -24 13 6 11 16 11 38 3z m-489 -14 c4 -6 -7 -10 -24 -10 -17 0 -31 5
-31 10 0 6 11 10 24 10 14 0 28 -4 31 -10z m92 -12 c-3 -8 -6 -5 -6 6 -1 11 2
17 5 13 3 -3 4 -12 1 -19z m333 -34 c0 -50 -13 -69 -60 -88 -22 -9 -43 -16
-45 -16 -3 0 12 23 34 50 22 28 43 59 46 70 10 32 25 23 25 -16z m-430 16 c21
-13 7 -22 -25 -14 -20 5 -23 9 -13 15 16 11 20 11 38 -1z m510 0 c0 -5 -11
-10 -25 -10 -14 0 -25 5 -25 10 0 6 11 10 25 10 14 0 25 -4 25 -10z m-441 -33
c11 -19 32 -46 47 -62 14 -15 19 -25 11 -22 -8 3 -34 11 -56 18 -29 9 -40 17
-36 27 3 7 5 27 5 43 0 37 4 36 29 -4z m421 3 c12 -8 11 -10 -7 -10 -13 0 -23
5 -23 10 0 13 11 13 30 0z m-490 -10 c0 -12 -8 -12 -35 0 -18 8 -17 9 8 9 15
1 27 -3 27 -9z m159 -40 c11 -24 11 -24 -3 -6 -9 11 -16 24 -16 30 0 12 5 7
19 -24z m118 -7 c-3 -10 -5 -4 -5 12 0 17 2 24 5 18 2 -7 2 -21 0 -30z"/>
<path d="M615 1205 c-14 -13 -25 -34 -25 -47 0 -21 1 -20 16 7 8 16 23 38 31
47 24 27 5 21 -22 -7z"/>
<path d="M712 1157 c-17 -20 -26 -67 -13 -67 6 0 11 9 11 21 0 11 5 29 10 40
12 22 8 25 -8 6z"/>
<path d="M1275 1148 c11 -6 31 -20 44 -32 l24 -21 -12 22 c-12 24 -41 43 -63
43 -7 0 -4 -6 7 -12z"/>
<path d="M730 1131 c-12 -24 -13 -34 -1 -27 9 6 22 46 15 46 -2 0 -8 -9 -14
-19z"/>
<path d="M1289 1106 c29 -31 35 -33 22 -7 -6 10 -18 22 -28 25 -13 5 -11 1 6
-18z"/>
<path d="M1053 1148 c-28 -13 -32 -44 -5 -32 32 14 90 16 112 4 31 -17 39 -2
11 21 -26 21 -82 24 -118 7z"/>
<path d="M833 1093 c-28 -11 -11 -23 31 -23 49 0 76 7 76 21 0 9 -86 11 -107
2z"/>
<path d="M1057 1094 c-15 -15 7 -24 59 -24 40 0 55 4 52 13 -5 13 -99 23 -111
11z"/>
<path d="M481 1487 c-6 -8 -7 -17 -3 -21 4 -4 -6 -2 -21 5 -24 11 -30 11 -38
-2 -5 -8 -9 -19 -9 -25 0 -12 103 -94 117 -94 14 0 34 40 27 52 -5 7 -3 8 6 3
14 -9 30 11 30 38 0 12 -8 17 -29 17 -20 0 -30 6 -34 20 -6 23 -29 26 -46 7z"/>
<path d="M1472 1458 c-28 -18 -52 -38 -52 -44 0 -18 37 -47 45 -35 3 6 12 11
18 11 7 0 4 -7 -5 -14 -22 -16 -22 -26 -5 -51 13 -17 17 -16 75 20 52 32 60
40 52 56 -15 27 -27 31 -52 18 l-23 -12 23 25 c22 24 22 25 4 41 -10 9 -20 17
-23 17 -2 0 -28 -15 -57 -32z"/>
<path d="M401 1359 c-24 -39 -25 -43 -11 -70 12 -22 39 -25 60 -6 12 10 12 9
2 -4 -9 -12 -9 -18 1 -28 10 -11 7 -12 -13 -6 -13 4 -36 9 -50 10 -15 1 -33 5
-40 10 -16 10 -41 -21 -33 -41 6 -17 30 -18 36 -1 3 7 6 5 6 -5 1 -11 13 -19
36 -24 42 -7 53 -20 25 -27 -11 -3 -23 -1 -26 4 -8 13 -60 11 -72 -3 -14 -18
-26 -104 -15 -111 5 -4 40 -9 76 -13 l67 -7 0 31 c0 21 -6 32 -17 35 -14 4
-13 5 3 6 18 1 23 9 28 44 4 23 8 51 9 62 2 11 11 35 21 53 24 47 18 86 -14
90 -14 2 -33 11 -42 19 -15 14 -19 12 -37 -18z m-34 -245 c-3 -3 -12 -4 -19
-1 -8 3 -5 6 6 6 11 1 17 -2 13 -5z"/>
<path d="M1543 1320 c-33 -15 -43 -25 -43 -43 0 -13 3 -27 8 -31 4 -4 7 -11 7
-14 1 -4 4 -17 8 -28 8 -22 8 -22 59 -6 55 18 69 35 45 59 -13 13 -21 14 -48
4 -18 -6 -34 -9 -37 -7 -2 3 14 10 37 17 43 13 47 19 31 50 -13 23 -15 23 -67
-1z"/>
<path d="M1596 1189 c-27 -4 -53 -12 -59 -18 -13 -13 0 -76 19 -96 37 -37 127
2 104 45 -9 17 -8 20 10 20 20 0 25 15 14 44 -7 17 -14 18 -88 5z m17 -66 c-7
-2 -19 -2 -25 0 -7 3 -2 5 12 5 14 0 19 -2 13 -5z"/>
<path d="M351 991 c-9 -6 -12 -23 -10 -55 3 -31 0 -46 -8 -46 -18 0 -25 -17
-18 -41 7 -20 12 -21 74 -16 l66 5 -47 -16 c-50 -16 -62 -38 -33 -62 8 -7 12
-16 9 -21 -9 -15 6 -49 21 -49 8 0 33 7 55 16 31 12 40 22 40 39 0 13 -4 26
-9 29 -11 7 -22 58 -25 112 -2 48 -19 74 -48 74 -11 0 -27 9 -36 20 -12 13
-21 17 -31 11z"/>
<path d="M1606 981 c-3 -5 -3 -16 0 -25 5 -13 0 -16 -27 -14 -31 3 -34 1 -35
-27 -1 -16 -4 -37 -6 -45 -3 -8 -11 -40 -18 -70 -7 -30 -21 -71 -31 -90 -24
-45 -24 -56 3 -74 20 -15 24 -14 46 7 l25 22 -14 -22 c-11 -18 -11 -25 -1 -35
11 -11 17 -8 33 12 40 52 4 125 -43 85 -17 -15 -19 -16 -9 -3 7 10 11 24 8 32
-5 11 1 12 39 0 32 -9 44 -10 44 -2 0 7 6 4 13 -7 18 -23 37 -12 37 22 0 20
-4 24 -19 20 -11 -3 -22 1 -25 8 -2 7 -22 17 -43 22 -31 8 -34 12 -20 18 11 4
28 2 41 -5 49 -26 86 9 86 83 0 31 -3 37 -20 37 -17 0 -20 6 -18 28 2 21 -2
28 -19 30 -11 2 -24 -1 -27 -7z"/>
<path d="M443 677 c-29 -17 -53 -37 -53 -43 0 -20 28 -36 52 -29 l23 6 -23
-18 c-23 -19 -23 -19 -4 -43 l19 -23 56 34 c61 36 65 44 43 75 -12 15 -17 17
-27 7 -7 -7 -18 -13 -23 -13 -6 0 -1 8 12 18 21 16 21 19 7 40 -9 12 -19 22
-23 22 -4 -1 -31 -15 -59 -33z"/>
<path d="M1440 625 c-7 -8 -10 -21 -7 -29 4 -10 1 -13 -8 -9 -9 3 -18 -4 -24
-18 -11 -30 -6 -39 24 -39 15 0 26 -7 30 -20 8 -26 30 -26 48 1 9 13 17 16 22
10 10 -17 33 -13 45 8 9 17 2 26 -46 65 -62 51 -66 52 -84 31z"/>
<path d="M616 503 c-17 -23 -20 -24 -31 -9 -15 20 -29 20 -46 0 -11 -13 -7
-20 25 -50 20 -19 41 -34 46 -34 11 0 70 75 70 89 0 9 -31 32 -42 31 -2 0 -12
-12 -22 -27z"/>
<path d="M674 455 c-35 -35 -29 -73 13 -98 40 -23 68 -15 89 24 20 39 11 63
-30 83 -43 20 -42 21 -72 -9z m47 -52 c-12 -20 -14 -14 -5 12 4 9 9 14 11 11
3 -2 0 -13 -6 -23z"/>
<path d="M1137 418 c-31 -11 -44 -48 -31 -87 11 -32 63 -41 100 -16 30 19 32
67 4 95 -22 22 -32 23 -73 8z m30 -70 c-3 -7 -5 -2 -5 12 0 14 2 19 5 13 2 -7
2 -19 0 -25z"/>
<path d="M960 352 c0 -26 4 -52 8 -59 8 -13 92 -16 111 -4 8 5 11 26 9 57 l-3
49 -62 2 -63 3 0 -48z m67 -34 c-3 -7 -5 -2 -5 12 0 14 2 19 5 13 2 -7 2 -19
0 -25z"/>
</g>
</svg>
